<?xml version="1.0" encoding="UTF-8"?>
<svg xmlns="http://www.w3.org/2000/svg" xmlns:xlink="http://www.w3.org/1999/xlink" width="40pt" height="40pt" viewBox="0 0 40 40" version="1.1">
    <g id="surface1">
        <path style=" stroke:none;fill-rule:nonzero;fill:rgb(100%,100%,100%);fill-opacity:1;" d="M 39.089844 18.148438 L 21.695312 0.753906 C 20.695312 -0.25 19.070312 -0.25 18.066406 0.753906 L 14.453125 4.367188 L 19.035156 8.949219 C 20.101562 8.589844 21.324219 8.828125 22.171875 9.679688 C 23.023438 10.53125 23.265625 11.765625 22.894531 12.832031 L 27.3125 17.25 C 28.378906 16.878906 29.613281 17.117188 30.464844 17.972656 C 31.660156 19.164062 31.660156 21.097656 30.464844 22.292969 C 29.273438 23.484375 27.339844 23.484375 26.148438 22.292969 C 25.25 21.394531 25.027344 20.074219 25.484375 18.96875 L 21.363281 14.851562 L 21.363281 25.691406 C 21.65625 25.835938 21.929688 26.027344 22.171875 26.269531 C 23.363281 27.460938 23.363281 29.390625 22.171875 30.585938 C 20.980469 31.777344 19.046875 31.777344 17.855469 30.585938 C 16.660156 29.390625 16.660156 27.460938 17.855469 26.269531 C 18.148438 25.972656 18.488281 25.75 18.855469 25.601562 L 18.855469 14.664062 C 18.488281 14.511719 18.148438 14.292969 17.855469 13.996094 C 16.949219 13.09375 16.734375 11.769531 17.195312 10.660156 L 12.679688 6.140625 L 0.75 18.066406 C -0.25 19.070312 -0.25 20.695312 0.75 21.699219 L 18.148438 39.09375 C 19.148438 40.09375 20.773438 40.09375 21.777344 39.09375 L 39.089844 21.777344 C 40.09375 20.777344 40.09375 19.148438 39.089844 18.148438 "/>
    </g>
</svg>
