<?xml version="1.0" encoding="UTF-8"?>
<svg xmlns="http://www.w3.org/2000/svg" xmlns:xlink="http://www.w3.org/1999/xlink" width="40pt" height="40pt" viewBox="0 0 40 40" version="1.1">
    <g id="surface1">
        <path style="stroke:none;fill-rule:nonzero;fill:rgb(6.27451%,5.882353%,5.098039%);fill-opacity:1;" d="M 39.089844 18.148438 L 21.695312 0.75 C 20.695312 -0.25 19.070312 -0.25 18.066406 0.75 L 14.453125 4.363281 L 19.035156 8.945312 C 20.101562 8.585938 21.324219 8.828125 22.171875 9.675781 C 23.023438 10.53125 23.265625 11.761719 22.894531 12.832031 L 27.3125 17.246094 C 28.382812 16.878906 29.613281 17.117188 30.46875 17.972656 C 31.660156 19.164062 31.660156 21.097656 30.46875 22.289062 C 29.273438 23.484375 27.339844 23.484375 26.148438 22.289062 C 25.25 21.390625 25.027344 20.074219 25.484375 18.96875 L 21.363281 14.851562 L 21.363281 25.6875 C 21.65625 25.832031 21.929688 26.023438 22.171875 26.265625 C 23.363281 27.457031 23.363281 29.390625 22.171875 30.585938 C 20.980469 31.777344 19.046875 31.777344 17.855469 30.585938 C 16.660156 29.390625 16.660156 27.457031 17.855469 26.265625 C 18.148438 25.972656 18.488281 25.75 18.855469 25.601562 L 18.855469 14.660156 C 18.488281 14.511719 18.148438 14.289062 17.855469 13.996094 C 16.949219 13.089844 16.734375 11.765625 17.195312 10.65625 L 12.679688 6.140625 L 0.75 18.066406 C -0.25 19.070312 -0.25 20.695312 0.75 21.695312 L 18.148438 39.089844 C 19.148438 40.09375 20.773438 40.09375 21.777344 39.089844 L 39.089844 21.777344 C 40.09375 20.773438 40.09375 19.148438 39.089844 18.148438 "/>
    </g>
</svg>